{"accessors":[{"bufferView":0,"componentType":5125,"count":4980,"max":[1531],"min":[0],"type":"SCALAR"},{"bufferView":1,"componentType":5126,"count":1532,"max":[44.0,169.0,121.0],"min":[-68.0,33.0,-3.0],"type":"VEC3"},{"bufferView":1,"byteOffset":12,"componentType":5126,"count":1532,"type":"VEC2"}],"asset":{"generator":"vengi-voxedit 0.0.30.0","version":"2.0"},"bufferViews":[{"buffer":0,"byteLength":19920,"target":34963},{"buffer":0,"byteLength":30640,"byteOffset":19920,"byteStride":20,"target":34962}],"buffers":[{"byteLength":50560,"uri":"data:application/octet-stream;base64,"}],"images":[{"uri":"data:image/png;base64,"}],"materials":[{"name":"17133846937221373634","pbrMetallicRoughness":{"baseColorTexture":{"index":0}}}],"meshes":[{"name":"unnamed.6","primitives":[{"attributes":{"POSITION":1,"TEXCOORD_0":2},"indices":0,"material":0,"mode":4}]}],"nodes":[{"children":[1],"name":"root"},{"mesh":0,"name":"unnamed.6"}],"scenes":[{"nodes":[0]}],"textures":[{"source":0}]}
