<?xml version="1.0" encoding="UTF-8"?>
<svg version="1.1" xmlns="http://www.w3.org/2000/svg" width="1600" height="1236">
<path d="M0 0 C528 0 1056 0 1600 0 C1600 407.88 1600 815.76 1600 1236 C1072 1236 544 1236 0 1236 C0 828.12 0 420.24 0 0 Z " fill="#FEFEFE" transform="translate(0,0)"/>
<path d="M0 0 C1.4479747 -0.00285507 1.4479747 -0.00285507 2.92520142 -0.00576782 C17.72268285 -0.00246688 32.68883254 0.22176562 46.9375 4.6875 C47.99602173 5.00690552 47.99602173 5.00690552 49.07592773 5.33276367 C54.31974666 6.99283052 58.54235477 9.10201951 62.9375 12.375 C62.6075 13.365 62.2775 14.355 61.9375 15.375 C61.28523438 15.41238281 60.63296875 15.44976562 59.9609375 15.48828125 C54.51226494 15.89813715 50.78776128 16.74777514 45.9375 19.375 C44.42298298 19.81407099 42.90112637 20.22815815 41.375 20.625 C7.25418637 30.57052864 -16.09327449 63.65079583 -32.31884766 93.09521484 C-35.86797312 99.77106916 -39.08362239 106.60528233 -42.31274414 113.43994141 C-55.04512908 140.3419582 -69.91706464 167.53145998 -90.3125 189.4140625 C-92.11474408 191.26125493 -92.11474408 191.26125493 -93.0625 193.375 C-91.845625 193.54 -90.62875 193.705 -89.375 193.875 C-77.42751194 196.56553668 -66.96540557 205.38452917 -60.0625 215.2265625 C-51.46112294 229.096283 -49.91923665 244.30249404 -52.75390625 260.26953125 C-57.11290807 275.64458788 -67.13316298 286.69486056 -79.58203125 296.26953125 C-82.14405074 298.44422181 -84.00063338 300.72981551 -86.0625 303.375 C-86.85914063 304.15746094 -87.65578125 304.93992187 -88.4765625 305.74609375 C-110.40070895 328.0345387 -122.74462994 361.29130589 -123.4375 392.25 C-122.59762609 425.91214618 -110.14406495 455.67146897 -86.0625 479.375 C-68.38673882 495.74758844 -47.43593258 505.37061267 -24.0625 510.375 C-22.91910156 510.62121094 -21.77570313 510.86742187 -20.59765625 511.12109375 C-3.94398953 514.04810184 13.55599259 513.36713206 29.9375 509.375 C31.25984555 509.0910769 32.58277812 508.80987566 33.90625 508.53125 C54.5085747 504.01762236 73.63595492 493.60629892 89.9375 480.375 C90.68644531 479.76785156 91.43539063 479.16070313 92.20703125 478.53515625 C96.94308636 474.54165662 101.039327 470.18357433 104.9375 465.375 C105.63746094 464.51261719 106.33742188 463.65023438 107.05859375 462.76171875 C124.35499011 440.60914178 134.34851541 415.11648044 134.3125 386.875 C134.31088867 385.55798096 134.30927734 384.24096191 134.30761719 382.8840332 C134.13722663 369.2352488 132.63973674 355.52428427 125.9375 343.375 C125.34388672 342.18197266 125.34388672 342.18197266 124.73828125 340.96484375 C116.28962566 324.52748804 104.47292589 307.70237711 90.625 295.5 C89.84640625 294.80777344 89.0678125 294.11554688 88.265625 293.40234375 C86.81748652 292.14129698 85.35141892 290.90018619 83.859375 289.69140625 C72.95421603 280.73973048 65.67086465 268.48458825 63.9375 254.375 C62.74747315 236.87595842 65.37749561 222.62310925 77.0390625 208.90234375 C84.14741839 201.37954308 92.16811588 196.63146137 101.9375 193.375 C99.02522149 191.11815308 96.01942638 189.16722021 92.875 187.25 C79.70830492 178.87751051 67.85519838 167.7912096 57.1484375 156.46875 C45.6848428 144.37036341 31.67777041 138.40499429 15.86328125 133.953125 C13.9375 133.375 13.9375 133.375 11.9375 132.375 C-2.85640286 130.87416928 -17.4600342 134.93113249 -29.0625 144.375 C-31.59388751 146.90638751 -33.89509448 149.52704394 -36.0625 152.375 C-37.3825 152.045 -38.7025 151.715 -40.0625 151.375 C-41.87635301 131.98692672 -29.52823793 111.25860089 -18.0625 96.375 C-15.01661867 92.84434176 -11.82976104 89.4533623 -8.6015625 86.08984375 C-5.99567875 83.45158685 -5.99567875 83.45158685 -4.0625 80.375 C-3.4025 80.375 -2.7425 80.375 -2.0625 80.375 C-1.67384766 79.48554688 -1.67384766 79.48554688 -1.27734375 78.578125 C8.62316144 60.62351109 38.53944252 49.25667988 56.9375 43.375 C83.21016561 35.94595742 109.73217567 37.44326905 135.9375 44.375 C137.04996094 44.64957031 138.16242188 44.92414063 139.30859375 45.20703125 C148.40067624 47.58901496 156.59067084 51.16044777 164.9375 55.375 C165.6171582 55.71160645 166.29681641 56.04821289 166.99707031 56.39501953 C183.17174583 64.43732339 197.46817877 74.36815967 210.9375 86.375 C211.45296387 86.82875 211.96842773 87.2825 212.49951172 87.75 C226.79491778 100.35753632 239.01254255 114.77670241 249.9375 130.375 C251.07638672 131.98568359 251.07638672 131.98568359 252.23828125 133.62890625 C269.84687292 158.98769575 281.8184171 187.01551788 290.9375 216.375 C291.17726563 217.13876953 291.41703125 217.90253906 291.6640625 218.68945312 C294.39502871 227.46138571 296.34422579 236.33316419 297.9375 245.375 C298.06680405 246.10587326 298.19610809 246.83674652 298.32933044 247.58976746 C300.63589901 261.01869917 301.38315276 274.12591636 301.27368164 287.74072266 C301.25001523 290.87298373 301.25316353 294.00439007 301.25976562 297.13671875 C301.23672492 315.50159978 300.17905308 333.48724879 295.8125 351.375 C295.50755615 352.64754639 295.2026123 353.92009277 294.88842773 355.23120117 C292.12727764 366.34372737 288.50470867 376.88573758 283.9375 387.375 C283.58478027 388.19967773 283.23206055 389.02435547 282.86865234 389.87402344 C281.8302692 392.28073443 280.76699878 394.67397867 279.6875 397.0625 C279.37047119 397.77639893 279.05344238 398.49029785 278.72680664 399.22583008 C276.97495058 402.94340753 275.79326914 404.87091764 271.9375 406.375 C271.12578772 408.93019921 271.12578772 408.93019921 270.9375 411.375 C269.9475 411.375 268.9575 411.375 267.9375 411.375 C265.6275 405.435 263.3175 399.495 260.9375 393.375 C260.60878906 394.79167969 260.28007813 396.20835937 259.94140625 397.66796875 C251.6757329 431.96665071 234.67528164 463.15317171 210.375 488.78515625 C208.3747834 490.91038639 206.48957598 493.07034739 204.625 495.3125 C187.49254271 514.97403431 164.3405278 531.33805732 141.9375 544.375 C141.35387695 544.72481934 140.77025391 545.07463867 140.16894531 545.43505859 C94.95671033 572.5313505 39.57597645 586.83748097 -13.0625 583.375 C-13.7225 583.045 -14.3825 582.715 -15.0625 582.375 C-16.99864345 582.18054018 -18.93547806 581.99126603 -20.87475586 581.83105469 C-65.39696865 578.06773495 -113.74463319 559.25366773 -149.3359375 532.42578125 C-151.88987773 530.50483767 -154.48038808 528.65540266 -157.09423828 526.81787109 C-171.45744559 516.69234162 -184.47127321 505.6474212 -197.0625 493.375 C-197.69051514 492.76309814 -198.31853027 492.15119629 -198.96557617 491.52075195 C-202.35345368 488.180048 -205.5174064 484.77805612 -208.5 481.0625 C-209.26441406 480.11117188 -210.02882813 479.15984375 -210.81640625 478.1796875 C-211.92822266 476.79136719 -211.92822266 476.79136719 -213.0625 475.375 C-213.71089844 474.59382813 -214.35929688 473.81265625 -215.02734375 473.0078125 C-229.19107515 455.80278908 -240.101572 437.15134439 -248.0625 416.375 C-248.46339844 415.36566406 -248.86429688 414.35632813 -249.27734375 413.31640625 C-254.12885581 400.70247489 -256.24900226 387.89624517 -256.1875 374.4375 C-256.19330078 373.17389648 -256.19330078 373.17389648 -256.19921875 371.88476562 C-256.19063187 366.30758422 -255.76597171 360.90786084 -255.0625 355.375 C-256.33589482 357.89456743 -257.60626642 360.41558649 -258.875 362.9375 C-259.23142578 363.64197266 -259.58785156 364.34644531 -259.95507812 365.07226562 C-262.15342409 369.44878925 -264.17913926 373.85374598 -266.0625 378.375 C-267.0525 378.375 -268.0425 378.375 -269.0625 378.375 C-269.31 377.715 -269.5575 377.055 -269.8125 376.375 C-271.06123872 373.24160754 -271.06123872 373.24160754 -272.9375 369.875 C-277.53831219 360.74178919 -279.85700644 350.40503921 -281.69042969 340.39697266 C-281.94293649 339.02475391 -282.20701319 337.65462364 -282.48144531 336.28662109 C-287.70729658 309.56164129 -287.28496919 279.05585381 -282.0625 252.375 C-281.76774836 250.70474073 -281.47481236 249.03416014 -281.18359375 247.36328125 C-278.47422305 232.38884777 -274.58759088 217.56408399 -269.0625 203.375 C-268.7955835 202.66794922 -268.52866699 201.96089844 -268.25366211 201.23242188 C-253.79940392 163.02087674 -232.02645822 128.95724811 -205.0625 98.375 C-204.60584961 97.85518555 -204.14919922 97.33537109 -203.67871094 96.79980469 C-167.02892024 55.3618551 -118.78003928 25.57773898 -66.0625 9.375 C-65.26924316 9.12379395 -64.47598633 8.87258789 -63.65869141 8.61376953 C-58.50414642 6.98951864 -53.32563919 5.60118327 -48.0625 4.375 C-47.24555664 4.17890137 -46.42861328 3.98280273 -45.58691406 3.78076172 C-30.45159125 0.31826643 -15.45215313 0.00329701 0 0 Z " fill="#040404" transform="translate(794.0625,327.625)"/>
<path d="M0 0 C2.16720606 0.02375356 4.33318304 0.02050431 6.50048828 0.01391602 C19.64654089 0.03755832 32.07984095 1.62354396 44.66064453 5.58618164 C45.6504834 5.89193115 46.64032227 6.19768066 47.66015625 6.51269531 C54.01410259 8.53402555 59.89112576 10.83504281 65.73095703 14.07446289 C67.97914184 15.37633471 67.97914184 15.37633471 70.30126953 16.18383789 C74.32777894 17.880724 77.94655951 20.1713964 81.66064453 22.46118164 C82.4653418 22.95690674 83.27003906 23.45263184 84.09912109 23.96337891 C95.0161324 30.74865041 104.77168994 38.49537731 114.421875 46.94750977 C115.98512488 48.29270875 117.58165019 49.58598499 119.18798828 50.87915039 C121.93035759 53.24533736 124.05901632 55.61415702 126.28564453 58.46118164 C129.31741464 62.26605313 132.43703053 65.87067761 135.78564453 69.39868164 C150.80134501 85.78791131 162.62932927 105.42801033 172.13134766 125.4465332 C172.99982804 127.26133832 173.89992175 129.06091184 174.80126953 130.85961914 C192.32180067 166.61097323 200.29178349 207.33253106 200.22314453 246.96118164 C200.22124115 248.09417694 200.22124115 248.09417694 200.21929932 249.25006104 C200.12308343 279.3099728 195.11702362 310.01063421 182.03564453 337.33618164 C181.44597934 338.68760315 180.86225388 340.04163824 180.28564453 341.39868164 C179.87314453 342.36805664 179.46064453 343.33743164 179.03564453 344.33618164 C178.37564453 344.33618164 177.71564453 344.33618164 177.03564453 344.33618164 C176.62572266 343.28817383 176.21580078 342.24016602 175.79345703 341.16040039 C175.24937014 339.78142155 174.70508915 338.40251928 174.16064453 337.02368164 C173.89123047 336.33338867 173.62181641 335.6430957 173.34423828 334.93188477 C172.11390786 331.82605065 170.8957599 329.12635469 169.03564453 326.33618164 C166.47281711 325.60652798 166.47281711 325.60652798 164.03564453 325.33618164 C164.09872803 326.30648315 164.09872803 326.30648315 164.16308594 327.29638672 C164.44625292 335.14345991 162.85978115 341.61025731 160.41064453 349.02368164 C160.04165039 350.16998047 159.67265625 351.3162793 159.29248047 352.49731445 C158.22499082 355.7832535 157.13278286 359.0600486 156.03564453 362.33618164 C155.78008789 363.12782715 155.52453125 363.91947266 155.26123047 364.73510742 C149.0356058 383.97835923 138.12435087 401.27031867 126.03564453 417.33618164 C125.37822266 418.22563477 124.72080078 419.11508789 124.04345703 420.03149414 C120.36346867 424.89857552 116.34426758 429.42174342 112.22705078 433.92211914 C110.26167467 436.08718587 108.3633904 438.29327763 106.47314453 440.52368164 C103.51745079 443.92512966 100.29932305 446.84476527 96.86767578 449.75805664 C95.38740414 451.03317337 93.97965219 452.39217399 92.59814453 453.77368164 C87.40125344 458.97057273 81.84725632 463.83686928 76.03564453 468.33618164 C75.37564453 468.00618164 74.71564453 467.67618164 74.03564453 467.33618164 C74.56931641 466.76512695 75.10298828 466.19407227 75.65283203 465.60571289 C115.10546109 422.6719695 136.82001796 365.35862097 135.16088867 307.08105469 C134.84486824 300.1550942 134.26503516 293.39397479 132.59814453 286.64868164 C132.35193359 285.63418945 132.10572266 284.61969727 131.85205078 283.57446289 C131.58263672 282.50583008 131.31322266 281.43719727 131.03564453 280.33618164 C130.75333984 279.11801758 130.47103516 277.89985352 130.18017578 276.64477539 C125.76795036 259.12717753 118.01076759 243.29529348 108.03564453 228.33618164 C107.32408203 227.25981445 106.61251953 226.18344727 105.87939453 225.07446289 C99.97725145 216.5961795 92.97901946 208.01405092 84.47314453 202.08618164 C81.14661384 199.33993825 80.51594966 196.89789508 79.98657227 192.65429688 C79.78609978 190.52850909 79.60771169 188.40181478 79.43408203 186.27368164 C78.16321455 173.71452064 69.61839361 162.22902683 60.03564453 154.33618164 C50.43750693 147.21668397 39.18915718 143.60378246 27.41064453 142.46118164 C6.9129726 140.15037938 -11.33963822 121.17285008 -25.28466797 106.96508789 C-29.58262085 102.7485831 -34.20923007 99.02106514 -38.96435547 95.33618164 C-39.84865234 94.63493164 -40.73294922 93.93368164 -41.64404297 93.21118164 C-58.22070164 80.52643414 -78.22895965 74.88365478 -98.96435547 77.33618164 C-107.76220415 79.06902894 -115.58186723 83.38617225 -122.96435547 88.33618164 C-112.69328889 54.89069852 -86.25489261 29.76385197 -56.36279297 13.33227539 C-38.53675661 4.01686361 -19.9930518 -0.23321453 0 0 Z " fill="#FDFDFD" transform="translate(886.96435546875,375.663818359375)"/>
<path d="M0 0 C2.4020338 -0.00219475 4.80361265 -0.02046107 7.20556641 -0.03930664 C16.63728427 -0.07232781 25.59509853 0.52218564 34.90478516 2.18530273 C31.63345935 4.72088752 28.41485901 6.43643117 24.65478516 8.18530273 C12.88578385 13.88772761 1.55821862 21.29860085 -7.09521484 31.18530273 C-7.64822266 31.7950293 -8.20123047 32.40475586 -8.77099609 33.03295898 C-10.57892089 35.05700353 -12.33766232 37.11738159 -14.09521484 39.18530273 C-14.85705078 40.05799805 -15.61888672 40.93069336 -16.40380859 41.82983398 C-23.0061283 49.52395695 -28.70447792 57.60365528 -34.09521484 66.18530273 C-34.50239746 66.83063965 -34.90958008 67.47597656 -35.32910156 68.14086914 C-41.25053044 77.61844372 -46.23251006 87.41204868 -50.98730469 97.51953125 C-60.81175192 118.39258579 -72.26103791 137.5965219 -85.73925781 156.30200195 C-86.93875148 157.96798938 -88.12901347 159.64061504 -89.31787109 161.31420898 C-90.59024428 163.09249597 -91.88090855 164.85789434 -93.19287109 166.60717773 C-94.55244936 168.44972734 -95.84542105 170.34217649 -97.09130859 172.26342773 C-102.33276408 179.76496036 -102.33276408 179.76496036 -107.32177734 180.95483398 C-109.70375565 181.06838727 -112.08945011 181.11878475 -114.47412109 181.11108398 C-127.34598291 181.37490855 -138.23118904 188.30864274 -147.34521484 196.87280273 C-156.38184296 206.3404306 -161.97313612 217.25644096 -162.28271484 230.37280273 C-162.62014882 235.56002303 -162.62014882 235.56002303 -164.61474609 238.18530273 C-166.70471264 239.96610264 -168.87380814 241.57213834 -171.09521484 243.18530273 C-193.21752901 262.31700777 -208.68924265 294.19709985 -212.59521484 322.75952148 C-213.35001423 327.93107669 -214.39290768 333.04053457 -215.41162109 338.16577148 C-217.22674881 348.29280236 -217.2990274 358.42958536 -217.28271484 368.68530273 C-217.28130997 369.82379669 -217.28130997 369.82379669 -217.27987671 370.98529053 C-217.24993327 382.17351809 -217.01263732 393.14268144 -215.09521484 404.18530273 C-214.95519043 405.05638672 -214.81516602 405.9274707 -214.67089844 406.82495117 C-210.36009363 432.97627173 -200.66755569 460.22099196 -184.27490234 481.37280273 C-183.09521484 483.18530273 -183.09521484 483.18530273 -183.09521484 486.18530273 C-196.62755342 472.83610859 -196.62755342 472.83610859 -201.43237305 467.13916016 C-203.06124288 465.22522017 -204.72733724 463.35013466 -206.39990234 461.47436523 C-232.11631299 432.0846644 -249.56540709 395.50979205 -249.35595703 356.15332031 C-249.34512143 353.72688443 -249.3559754 351.30117107 -249.36865234 348.87475586 C-249.36733241 347.31290529 -249.36477347 345.75105516 -249.36083984 344.18920898 C-249.36488831 343.47350235 -249.36893677 342.75779572 -249.37310791 342.020401 C-249.33301265 337.70622153 -248.67381241 334.19802877 -247.09521484 330.18530273 C-253.57416145 331.32196003 -257.74738953 333.1515341 -262.09521484 338.18530273 C-263.9730252 341.09211523 -265.59270667 344.06950237 -267.09521484 347.18530273 C-267.75521484 347.18530273 -268.41521484 347.18530273 -269.09521484 347.18530273 C-270.87690067 340.21082221 -272.53492398 333.21263127 -274.09521484 326.18530273 C-274.35818359 325.00846924 -274.35818359 325.00846924 -274.62646484 323.80786133 C-282.70170111 285.82901578 -277.34239484 240.21297055 -264.09521484 204.18530273 C-263.56903564 202.73776611 -263.56903564 202.73776611 -263.03222656 201.26098633 C-258.37334182 188.54121858 -253.52798149 176.03847617 -247.11474609 164.09350586 C-246.00405576 162.01468506 -244.92348104 159.92173866 -243.84521484 157.82592773 C-231.93799587 134.80043126 -216.75219974 113.09277137 -198.89013672 94.27026367 C-196.17171947 91.46394232 -196.17171947 91.46394232 -194.09521484 88.18530273 C-193.43521484 88.18530273 -192.77521484 88.18530273 -192.09521484 88.18530273 C-191.60021484 86.70030273 -191.60021484 86.70030273 -191.09521484 85.18530273 C-190.43521484 85.18530273 -189.77521484 85.18530273 -189.09521484 85.18530273 C-188.76457031 84.35192383 -188.76457031 84.35192383 -188.42724609 83.50170898 C-185.34835262 78.1475042 -179.71305639 74.24551813 -175.09521484 70.18530273 C-174.33023682 69.50540283 -174.33023682 69.50540283 -173.54980469 68.81176758 C-141.95430166 40.82366548 -103.75457764 19.54897914 -63.09521484 8.18530273 C-62.40524414 7.99242676 -61.71527344 7.79955078 -61.00439453 7.60083008 C-40.8378155 2.06972866 -20.88581975 -0.00212817 0 0 Z " fill="#FDFDFD" transform="translate(795.09521484375,337.814697265625)"/>
<path d="M0 0 C1.4479747 -0.00285507 1.4479747 -0.00285507 2.92520142 -0.00576782 C17.72268285 -0.00246688 32.68883254 0.22176562 46.9375 4.6875 C47.99602173 5.00690552 47.99602173 5.00690552 49.07592773 5.33276367 C54.31974666 6.99283052 58.54235477 9.10201951 62.9375 12.375 C62.6075 13.365 62.2775 14.355 61.9375 15.375 C61.28523438 15.41238281 60.63296875 15.44976562 59.9609375 15.48828125 C54.51226494 15.89813715 50.78776128 16.74777514 45.9375 19.375 C44.42298298 19.81407099 42.90112637 20.22815815 41.375 20.625 C7.25418637 30.57052864 -16.09327449 63.65079583 -32.31884766 93.09521484 C-35.86797312 99.77106916 -39.08362239 106.60528233 -42.31274414 113.43994141 C-55.04512908 140.3419582 -69.91706464 167.53145998 -90.3125 189.4140625 C-92.11474408 191.26125493 -92.11474408 191.26125493 -93.0625 193.375 C-91.845625 193.54 -90.62875 193.705 -89.375 193.875 C-77.42751194 196.56553668 -66.96540557 205.38452917 -60.0625 215.2265625 C-51.46112294 229.096283 -49.91923665 244.30249404 -52.75390625 260.26953125 C-57.11290807 275.64458788 -67.13316298 286.69486056 -79.58203125 296.26953125 C-82.14405074 298.44422181 -84.00063338 300.72981551 -86.0625 303.375 C-86.85914063 304.15746094 -87.65578125 304.93992187 -88.4765625 305.74609375 C-110.40070895 328.0345387 -122.74462994 361.29130589 -123.4375 392.25 C-122.64382251 424.06059385 -111.59771372 451.88815753 -90.0625 475.375 C-90.7225 476.035 -91.3825 476.695 -92.0625 477.375 C-93.0525 476.715 -94.0425 476.055 -95.0625 475.375 C-95.7225 476.695 -96.3825 478.015 -97.0625 479.375 C-108.30509002 466.74502653 -117.11508687 453.25851052 -123.0625 437.375 C-123.51367188 436.18390625 -123.96484375 434.9928125 -124.4296875 433.765625 C-135.02466767 404.04952676 -133.49156495 371.3716726 -121.0625 342.375 C-118.6825405 337.53552803 -115.94661253 332.92809136 -113.0625 328.375 C-119.93537749 337.00707189 -126.50811354 345.69015853 -132.25 355.125 C-132.70673096 355.87442871 -133.16346191 356.62385742 -133.6340332 357.39599609 C-135.77572935 360.98381566 -137.5811195 364.45801642 -139.0625 368.375 C-139.9518733 370.02433315 -140.848383 371.66982794 -141.75 373.3125 C-152.14294409 393.92007786 -156.28531852 417.01018008 -156.25 439.875 C-156.24909363 440.94980621 -156.24909363 440.94980621 -156.24816895 442.04632568 C-156.21273059 457.48059389 -154.90174937 471.58840469 -150.0625 486.375 C-149.77632812 487.28378906 -149.49015625 488.19257812 -149.1953125 489.12890625 C-142.83405086 508.01566093 -132.25020319 525.83505391 -117.78515625 539.52734375 C-116.0625 541.375 -116.0625 541.375 -116.0625 543.375 C-115.19496094 543.64441406 -114.32742188 543.91382813 -113.43359375 544.19140625 C-110.15546656 545.34235937 -107.20910019 546.71979123 -104.125 548.3125 C-81.65412668 559.88840444 -56.82730017 567.5778801 -32.0625 572.375 C-31.2271875 572.55305176 -30.391875 572.73110352 -29.53125 572.91455078 C-20.06914775 574.75276127 -10.66453764 574.7713048 -1.0625 574.75 C-0.18321838 574.74978851 0.69606323 574.74957703 1.60198975 574.74935913 C17.35002293 574.71172367 32.45038541 573.37921459 47.9375 570.375 C49.34443115 570.11807373 49.34443115 570.11807373 50.77978516 569.85595703 C71.501899 566.01141586 91.6169268 558.6735327 110.9375 550.375 C110.6075 551.365 110.2775 552.355 109.9375 553.375 C111.31242804 556.5418838 111.31242804 556.5418838 112.9375 559.375 C72.65742875 576.0363022 30.75056224 586.2569583 -13.0625 583.375 C-13.7225 583.045 -14.3825 582.715 -15.0625 582.375 C-16.99864345 582.18054018 -18.93547806 581.99126603 -20.87475586 581.83105469 C-65.39696865 578.06773495 -113.74463319 559.25366773 -149.3359375 532.42578125 C-151.88987773 530.50483767 -154.48038808 528.65540266 -157.09423828 526.81787109 C-171.45744559 516.69234162 -184.47127321 505.6474212 -197.0625 493.375 C-197.69051514 492.76309814 -198.31853027 492.15119629 -198.96557617 491.52075195 C-202.35345368 488.180048 -205.5174064 484.77805612 -208.5 481.0625 C-209.26441406 480.11117188 -210.02882813 479.15984375 -210.81640625 478.1796875 C-211.92822266 476.79136719 -211.92822266 476.79136719 -213.0625 475.375 C-213.71089844 474.59382813 -214.35929688 473.81265625 -215.02734375 473.0078125 C-229.19107515 455.80278908 -240.101572 437.15134439 -248.0625 416.375 C-248.46339844 415.36566406 -248.86429688 414.35632813 -249.27734375 413.31640625 C-254.12885581 400.70247489 -256.24900226 387.89624517 -256.1875 374.4375 C-256.19330078 373.17389648 -256.19330078 373.17389648 -256.19921875 371.88476562 C-256.19063187 366.30758422 -255.76597171 360.90786084 -255.0625 355.375 C-256.33589482 357.89456743 -257.60626642 360.41558649 -258.875 362.9375 C-259.23142578 363.64197266 -259.58785156 364.34644531 -259.95507812 365.07226562 C-262.15342409 369.44878925 -264.17913926 373.85374598 -266.0625 378.375 C-267.0525 378.375 -268.0425 378.375 -269.0625 378.375 C-269.31 377.715 -269.5575 377.055 -269.8125 376.375 C-271.06123872 373.24160754 -271.06123872 373.24160754 -272.9375 369.875 C-277.53831219 360.74178919 -279.85700644 350.40503921 -281.69042969 340.39697266 C-281.94293649 339.02475391 -282.20701319 337.65462364 -282.48144531 336.28662109 C-287.70729658 309.56164129 -287.28496919 279.05585381 -282.0625 252.375 C-281.76774836 250.70474073 -281.47481236 249.03416014 -281.18359375 247.36328125 C-278.47422305 232.38884777 -274.58759088 217.56408399 -269.0625 203.375 C-268.7955835 202.66794922 -268.52866699 201.96089844 -268.25366211 201.23242188 C-253.79940392 163.02087674 -232.02645822 128.95724811 -205.0625 98.375 C-204.60584961 97.85518555 -204.14919922 97.33537109 -203.67871094 96.79980469 C-167.02892024 55.3618551 -118.78003928 25.57773898 -66.0625 9.375 C-65.26924316 9.12379395 -64.47598633 8.87258789 -63.65869141 8.61376953 C-58.50414642 6.98951864 -53.32563919 5.60118327 -48.0625 4.375 C-47.24555664 4.17890137 -46.42861328 3.98280273 -45.58691406 3.78076172 C-30.45159125 0.31826643 -15.45215313 0.00329701 0 0 Z M-177.0625 83.375 C-177.8968457 84.10444824 -177.8968457 84.10444824 -178.74804688 84.84863281 C-180.31779291 86.2251937 -181.87930764 87.6103855 -183.4375 89 C-184.33210937 89.79664063 -185.22671875 90.59328125 -186.1484375 91.4140625 C-188.29533399 93.1568295 -188.29533399 93.1568295 -188.0625 95.375 C-189.5475 95.87 -189.5475 95.87 -191.0625 96.375 C-191.0625 97.035 -191.0625 97.695 -191.0625 98.375 C-191.7225 98.375 -192.3825 98.375 -193.0625 98.375 C-194.49950222 99.717554 -194.49950222 99.717554 -196 101.5625 C-196.62390625 102.29855469 -197.2478125 103.03460938 -197.890625 103.79296875 C-198.60734375 104.64503906 -199.3240625 105.49710937 -200.0625 106.375 C-200.88234375 107.31988281 -201.7021875 108.26476562 -202.546875 109.23828125 C-218.32864576 127.48214744 -231.78187051 147.06293825 -243.0625 168.375 C-243.42085937 169.05175781 -243.77921875 169.72851562 -244.1484375 170.42578125 C-252.05105237 185.48828403 -258.74846292 201.21524902 -264.0625 217.375 C-264.67544922 219.23705078 -264.67544922 219.23705078 -265.30078125 221.13671875 C-279.15415924 264.85206091 -280.87978078 313.25258321 -268.0625 357.375 C-267.4025 357.375 -266.7425 357.375 -266.0625 357.375 C-265.12780755 355.86877587 -264.26521066 354.31756377 -263.4375 352.75 C-260.4630223 347.63534932 -257.30726159 344.17428743 -252.0625 341.375 C-248.5625 340.5 -248.5625 340.5 -246.0625 340.375 C-246.38629639 341.20281982 -246.71009277 342.03063965 -247.04370117 342.88354492 C-248.16863145 346.73871575 -248.36843535 350.2618493 -248.36328125 354.23828125 C-248.36756638 354.98853073 -248.3718515 355.73878021 -248.37626648 356.51176453 C-248.3819904 358.09938556 -248.38252437 359.68703281 -248.37817383 361.2746582 C-248.37505909 363.64257876 -248.39833638 366.00919091 -248.42382812 368.37695312 C-248.49596022 385.3784873 -245.35927564 400.57737007 -239.0625 416.375 C-238.79953125 417.0438623 -238.5365625 417.71272461 -238.265625 418.40185547 C-229.95899775 439.25495097 -217.23469804 457.12188935 -203.0625 474.375 C-202.35673828 475.24898437 -202.35673828 475.24898437 -201.63671875 476.140625 C-198.95725088 479.4256692 -196.0709814 482.39245378 -193.0625 485.375 C-192.09716361 486.33935085 -191.13232851 487.30420375 -190.16796875 488.26953125 C-189.44770508 488.98979492 -189.44770508 488.98979492 -188.71289062 489.72460938 C-186.49609375 491.94140625 -184.27929688 494.15820312 -182.0625 496.375 C-182.0625 492.78408275 -182.71421287 492.26297371 -184.875 489.5 C-200.7243929 467.34286892 -209.66818415 441.03319993 -214.0625 414.375 C-214.19237305 413.6325 -214.32224609 412.89 -214.45605469 412.125 C-218.48546529 388.2871423 -218.03187117 360.61223978 -212.01171875 337.1953125 C-211.1908955 333.89175227 -210.65803171 330.74686645 -210.25 327.375 C-207.48012372 309.02192665 -199.6388229 291.54060839 -189.0625 276.375 C-188.43601562 275.46363281 -187.80953125 274.55226563 -187.1640625 273.61328125 C-171.14709052 250.91729526 -171.14709052 250.91729526 -162.0625 246.375 C-161.70995613 243.9252721 -161.45770082 241.52491794 -161.25 239.0625 C-159.99772859 227.32621754 -155.95501928 218.20710491 -148.0625 209.375 C-147.26199219 208.45267578 -147.26199219 208.45267578 -146.4453125 207.51171875 C-138.52712428 198.9684104 -128.46827147 193.59315349 -117.0625 191.375 C-114.68741006 191.37238714 -112.31218155 191.39338023 -109.9375 191.4375 C-104.86128618 191.17891103 -102.2183282 190.277366 -98.73168945 186.47827148 C-96.34659221 183.54979956 -94.19003449 180.49353847 -92.0625 177.375 C-91.18665184 176.14588223 -90.30904508 174.9180157 -89.4296875 173.69140625 C-87.08422051 170.37811194 -84.82226988 167.01435728 -82.57519531 163.63378906 C-80.96412285 161.22810113 -79.32386253 158.84410932 -77.6796875 156.4609375 C-67.08984442 141.00746991 -58.06500927 124.99316554 -50.1875 108 C-40.45096574 87.0259405 -28.26417555 66.84322218 -13.0625 49.375 C-12.52302734 48.74045898 -11.98355469 48.10591797 -11.42773438 47.45214844 C1.72487991 32.10743177 17.11375588 20.89762767 35.9375 13.375 C35.9375 13.045 35.9375 12.715 35.9375 12.375 C25.16939886 10.47328165 14.77673507 10.04859603 3.875 10.125 C3.05913422 10.12876648 2.24326843 10.13253296 1.40267944 10.13641357 C-66.44887256 10.50313836 -126.68003386 39.09330757 -177.0625 83.375 Z " fill="#040404" transform="translate(794.0625,327.625)"/>
<path d="M0 0 C0 3.73174556 -1.10334831 4.95125681 -3.125 8.0625 C-17.96782527 33.04042616 -20.8185494 65.96159053 -14.38671875 93.87109375 C-9.3183967 113.58123506 -0.60157291 131.80484346 13 147 C13.84304688 147.98613281 14.68609375 148.97226562 15.5546875 149.98828125 C36.09297964 173.66342659 67.82634526 189.41451939 99 192 C116.57858216 192.91918812 133.96981845 192.91160309 151 188 C151.84530273 187.76394043 152.69060547 187.52788086 153.56152344 187.28466797 C188.61711566 177.26416971 219.15743436 155.09463553 237 123 C237.33628418 122.40380859 237.67256836 121.80761719 238.01904297 121.19335938 C244.08018403 110.31803817 247.97772503 99.0586925 251 87 C251.26997803 85.95070313 251.53995605 84.90140625 251.81811523 83.8203125 C253.93860899 74.91788933 254.51858318 66.37846669 254.4375 57.25 C254.43545563 56.55299988 254.43341125 55.85599976 254.43130493 55.13787842 C254.37821079 43.99639873 253.28107107 33.67818113 250 23 C249.69191406 21.91203125 249.38382813 20.8240625 249.06640625 19.703125 C248.41675253 17.45264992 247.73724561 15.22290721 247 13 C251.5674856 17.12654437 254.54597346 21.73420313 257.6875 27 C258.17283203 27.7940625 258.65816406 28.588125 259.15820312 29.40625 C261.44846442 33.19702732 263.45133779 36.8388749 265 41 C265.8893733 42.64933315 266.785883 44.29482794 267.6875 45.9375 C284.76860278 79.80664741 287.47617252 123.84031957 275.97998047 159.88525391 C272.84046359 168.98040279 268.61445725 177.57476156 264 186 C263.6395459 186.67981934 263.2790918 187.35963867 262.90771484 188.06005859 C256.82762512 199.38665588 249.64789076 206.85659989 239 214 C238.24396484 214.51046875 237.48792969 215.0209375 236.70898438 215.546875 C225.19199439 223.18077812 213.40933112 228.72855128 200.35253906 233.19335938 C198.26309637 233.90978929 196.18941342 234.65744904 194.1171875 235.421875 C183.31642391 239.2674216 172.23917831 241.80332469 161 244 C159.98373535 244.20044922 158.9674707 244.40089844 157.92041016 244.60742188 C129.56174374 249.96889298 98.64893692 251.12136538 70.59912109 243.68798828 C68.12320146 243.03261147 65.64087788 242.44292832 63.14453125 241.87109375 C48.35934998 238.3738386 31.96145783 234.01958529 19 226 C17.49371795 225.3604175 15.97198005 224.75611443 14.4375 224.1875 C4.3685159 220.20499136 -3.31217984 216.66231945 -10 208 C-11.32678705 206.55645569 -12.66038586 205.1191487 -14 203.6875 C-24.41674971 191.90855994 -31.66563405 176.72180407 -37 162 C-37.26296875 161.32582031 -37.5259375 160.65164063 -37.796875 159.95703125 C-40.5139197 152.56833315 -41.75350536 144.74994495 -43 137 C-43.28230469 135.25009766 -43.28230469 135.25009766 -43.5703125 133.46484375 C-45.64406708 115.96567653 -45.40400709 96.07043389 -41 79 C-40.79600586 78.20770996 -40.59201172 77.41541992 -40.38183594 76.59912109 C-32.34218627 46.34218627 -32.34218627 46.34218627 -26 40 C-25.26809084 38.30875228 -24.53918071 36.61604935 -23.83496094 34.91308594 C-22.49828854 31.85046461 -20.8386743 28.98711753 -19.125 26.125 C-18.74859375 25.49513184 -18.3721875 24.86526367 -17.984375 24.21630859 C-12.86628607 15.88107699 -6.9389646 6.9389646 0 0 Z " fill="#FCFCFC" transform="translate(681,655)"/>
<path d="M0 0 C5.8346523 4.86079887 11.42427068 9.86272299 12.3046875 17.71875 C12.68051018 26.47320771 10.70106812 32.81294791 5.3125 39.6875 C-3.62667096 49.3142995 -17.98649885 55.80949043 -31 57 C-33.66913448 57.04664997 -36.32999592 57.02810531 -39 57 C-38.55417739 75.41247367 -35.29353848 92.02277198 -22.2578125 105.84765625 C-12.8514913 114.72706734 -2.00181816 118.59687467 10.70703125 118.34375 C19.05138326 117.8964316 27.29686839 114.63525288 33.3671875 108.82421875 C36.76390524 105.02932118 39.91706653 101.05185541 43 97 C44.65 97.33 46.3 97.66 48 98 C48.95408671 101.06398133 49.2469074 102.47940202 47.84765625 105.4296875 C40.33456332 115.72114522 30.36413148 125.18861348 17.34375 127.75 C6.80544043 128.87408635 -2.25999367 128.27806908 -12 124 C-12.91265625 123.61070312 -13.8253125 123.22140625 -14.765625 122.8203125 C-25.88953762 117.44905184 -36.01207559 107.37562208 -41 96 C-41.3832053 94.34408859 -41.73065976 92.67819687 -42 91 C-42.66 91 -43.32 91 -44 91 C-44.2784375 92.423125 -44.2784375 92.423125 -44.5625 93.875 C-47.98108822 105.65013722 -58.9913762 115.89177637 -69.3828125 121.71875 C-81.57511796 127.68752044 -94.91310915 130.44550962 -108.1875 126.4375 C-119.56415263 122.15064539 -129.37529048 113.88259015 -135 103 C-134.6875 99.6875 -134.6875 99.6875 -134 97 C-131.84765625 96.5859375 -131.84765625 96.5859375 -129 97 C-126.95355792 99.16821875 -125.21658809 101.25634246 -123.4375 103.625 C-117.32078982 111.29998514 -111.36227255 114.87924248 -102 118 C-89.54483676 119.10502082 -78.29997803 117.25525128 -68 109.625 C-64.24376997 106.41234315 -60.99094973 102.9296478 -58 99 C-56.948125 97.63875 -56.948125 97.63875 -55.875 96.25 C-50.35092897 86.67494355 -47.8306727 75.95513119 -47.375 65 C-47.33632813 64.22527344 -47.29765625 63.45054687 -47.2578125 62.65234375 C-47.16478643 60.76856585 -47.08136825 58.88431744 -47 57 C-47.680625 57.04640625 -48.36125 57.0928125 -49.0625 57.140625 C-62.45813035 57.63939847 -74.74313499 54.30391954 -86 47 C-87.36125 46.13375 -87.36125 46.13375 -88.75 45.25 C-94.09484919 39.90515081 -99.11861452 33.59655912 -99.1875 25.8125 C-99.01070633 16.69289333 -96.66580459 10.46846169 -90 4 C-65.78583333 -15.28107487 -25.77533643 -18.03212837 0 0 Z " fill="#040404" transform="translate(843,680)"/>
<path d="M0 0 C1.11246094 0.27457031 2.22492188 0.54914063 3.37109375 0.83203125 C12.46317624 3.21401496 20.65317084 6.78544777 29 11 C29.6796582 11.33660645 30.35931641 11.67321289 31.05957031 12.02001953 C47.23424583 20.06232339 61.53067877 29.99315967 75 42 C75.51546387 42.45375 76.03092773 42.9075 76.56201172 43.375 C88.59783961 53.98974831 100.98685036 65.98326803 109 80 C104.632 84.004 104.632 84.004 102.1484375 83.98828125 C98.89877707 82.49343745 97.05225962 79.86473454 94.875 77.125 C93.90953357 75.94238999 92.94204148 74.76143116 91.97265625 73.58203125 C91.23813232 72.68605225 91.23813232 72.68605225 90.48876953 71.77197266 C87.40361311 68.09993833 84.08733506 64.63553631 80.80078125 61.14453125 C79 59 79 59 79 57 C78.18015625 56.66162109 78.18015625 56.66162109 77.34375 56.31640625 C74.31061542 54.61279566 71.99081742 52.3281636 69.5 49.9375 C59.49579789 40.60228118 48.61924926 33.37121913 36.90625 26.3828125 C34.7529938 25.09441333 32.76052033 23.81851279 30.7578125 22.30078125 C28.71617887 20.78997236 26.74725734 19.96272143 24.375 19.0625 C19.02976287 17.01258996 19.02976287 17.01258996 16.79296875 16.06640625 C11.21131046 13.71057499 5.5045306 11.75867523 -0.25 9.875 C-1.37426392 9.49432373 -1.37426392 9.49432373 -2.52124023 9.10595703 C-14.32662507 5.32533532 -26.40481989 4.64693961 -38.70361328 4.68432617 C-40.86672416 4.6874879 -43.02846255 4.66390214 -45.19140625 4.63867188 C-80.77715486 4.47710179 -111.66297902 21.37808479 -136.8125 45.5625 C-146.19011891 55.31059274 -153.31274741 66.4082277 -159.375 78.4375 C-159.72111328 79.12408691 -160.06722656 79.81067383 -160.42382812 80.51806641 C-161.96829357 83.65265034 -163.23532535 86.59444349 -164 90 C-163.41734375 89.61328125 -162.8346875 89.2265625 -162.234375 88.828125 C-147.667257 79.57479847 -132.55598314 77.62329973 -115.70947266 81.03149414 C-95.7589989 85.80161115 -80.66808404 98.31204139 -66 112 C-68.25740623 114.33524782 -70.2805761 116.18705073 -73 118 C-73.78761719 117.154375 -74.57523438 116.30875 -75.38671875 115.4375 C-88.23758444 101.93293022 -102.08756566 94.64147088 -120.07421875 89.578125 C-122 89 -122 89 -124 88 C-138.79390286 86.49916928 -153.3975342 90.55613249 -165 100 C-167.53138751 102.53138751 -169.83259448 105.15204394 -172 108 C-173.32 107.67 -174.64 107.34 -176 107 C-177.81385301 87.61192672 -165.46573793 66.88360089 -154 52 C-150.95411867 48.46934176 -147.76726104 45.0783623 -144.5390625 41.71484375 C-141.93317875 39.07658685 -141.93317875 39.07658685 -140 36 C-139.34 36 -138.68 36 -138 36 C-137.74089844 35.40703125 -137.48179687 34.8140625 -137.21484375 34.203125 C-127.31433856 16.24851109 -97.39805748 4.88167988 -79 -1 C-52.72733439 -8.42904258 -26.20532433 -6.93173095 0 0 Z " fill="#0C0C0C" transform="translate(930,372)"/>
<path d="M0 0 C5.12055106 3.86937569 8.82406788 7.98054077 10.875 14.125 C12.02346255 22.77740005 11.4777701 30.68156231 6.62109375 38.01953125 C2.40377409 43.47791501 -2.68924016 45.97974672 -9.125 48.125 C-16.74758691 48.89867355 -23.50589816 48.16186279 -30.125 44.125 C-35.3997566 39.45619472 -39.68695 33.8656034 -40.5234375 26.72265625 C-40.45520044 16.43023305 -39.21620794 10.55430701 -32.046875 2.92578125 C-23.5637501 -5.02283781 -9.97277441 -5.77083937 0 0 Z " fill="#FBFBFB" transform="translate(934.125,553.875)"/>
<path d="M0 0 C6.02464993 5.55519669 9.52917315 10.8074525 10.2734375 19.015625 C10.54745248 27.74194807 9.23818379 33.21495378 3.42578125 39.77734375 C-2.23968872 45.17868924 -8.73137678 47.08697788 -16.4375 47.5 C-23.50211093 47.25298563 -29.11138946 44.91000765 -34.109375 39.875 C-40.10291146 32.54406285 -41.60232449 25.9560952 -41.43359375 16.546875 C-40.62744244 9.95241203 -37.78142663 5.34908053 -32.73828125 1.08984375 C-22.955098 -5.75029925 -10.34181222 -6.44800382 0 0 Z " fill="#FBFBFB" transform="translate(696,555)"/>
<path d="M0 0 C0 0.66 0 1.32 0 2 C0.66 2.33 1.32 2.66 2 3 C1.77860352 3.50748779 1.55720703 4.01497559 1.32910156 4.5378418 C-13.24672909 38.10699601 -18.4544413 71.31582669 -4.953125 106.33203125 C0.97234538 120.86850963 9.39357907 133.43237217 20 145 C19.34 145.66 18.68 146.32 18 147 C17.01 146.34 16.02 145.68 15 145 C14.34 146.32 13.68 147.64 13 149 C1.75740998 136.37002653 -7.05258687 122.88351052 -13 107 C-13.45117188 105.80890625 -13.90234375 104.6178125 -14.3671875 103.390625 C-25.39769287 72.45299457 -23.07173126 38.85699288 -9.64453125 8.984375 C-4.93497984 0 -4.93497984 0 0 0 Z " fill="#0D0D0D" transform="translate(684,658)"/>
<path d="M0 0 C2.15234375 -0.4140625 2.15234375 -0.4140625 5 0 C7.04644208 2.16821875 8.78341191 4.25634246 10.5625 6.625 C16.67921018 14.29998514 22.63772745 17.87924248 32 21 C44.58891585 22.11688734 55.87290294 20.22342523 66.1875 12.375 C68.57573735 10.35664262 70.81325592 8.23413482 73 6 C73.99 6.495 73.99 6.495 75 7 C74.67 8.65 74.34 10.3 74 12 C74.99 12 75.98 12 77 12 C76.25944745 16.57341237 73.88142649 18.39345877 70.4296875 21.26171875 C59.46337678 29.10739121 45.3181733 32.41716959 32 31 C18.26143295 28.12567962 8.04218252 19.90070385 0.2578125 8.43359375 C-1.38603685 5.25310262 -0.86890389 3.39662431 0 0 Z " fill="#0D0D0D" transform="translate(709,777)"/>
<path d="M0 0 C6.95102954 0 11.0027859 2.25706892 16 7 C18.6853917 10.22247005 19.88540088 12.0259075 20.375 16.1875 C20 19 20 19 18 22 C13.86572509 22.947438 12.05888518 22.64977045 8.421875 20.41796875 C3.80951921 16.8912698 -0.25693994 13.72719733 -2 8 C-2.3125 4.75 -2.3125 4.75 -2 2 C-1.34 1.34 -0.68 0.68 0 0 Z " fill="#0C0C0C" transform="translate(741,495)"/>
<path d="M0 0 C1 1 1 1 1.375 3.5625 C0.67166171 10.0097677 -2.95915128 14.444903 -7.875 18.5 C-10.83842246 20.55980311 -12.15748382 21.02286055 -15.875 21.5625 C-16.90625 21.376875 -17.9375 21.19125 -19 21 C-21.39989427 17.4001586 -21.64136132 16.24901872 -21 12 C-19.28637239 9.08262783 -17.3702501 6.41937445 -15 4 C-14.34 4 -13.68 4 -13 4 C-13 3.34 -13 2.68 -13 2 C-8.23610223 -0.90481571 -5.43100404 -1.2778833 0 0 Z " fill="#0B0B0B" transform="translate(860,496)"/>
<path d="M0 0 C2.49361571 1.20381448 4.68143083 2.45428722 7 4 C6.48050781 4.44730469 5.96101562 4.89460937 5.42578125 5.35546875 C2.39393039 7.98382005 -0.5992275 10.5992275 -3.4375 13.4375 C-8.63439109 18.63439109 -14.18838821 23.50068764 -20 28 C-20.66 27.67 -21.32 27.34 -22 27 C-21.46632813 26.42894531 -20.93265625 25.85789062 -20.3828125 25.26953125 C-14.14733027 18.48385941 -8.52848665 11.36466273 -3 4 C-2.40960937 3.21367188 -1.81921875 2.42734375 -1.2109375 1.6171875 C-0.61152344 0.81667969 -0.61152344 0.81667969 0 0 Z " fill="#ECECEC" transform="translate(983,816)"/>
<path d="M0 0 C3.14636882 3.92807536 5.46720681 8.28755401 7.86328125 12.69140625 C10.19720933 16.8779465 12.83648528 20.3955773 16 24 C15.67 24.66 15.34 25.32 15 26 C1.18223235 12.3667426 1.18223235 12.3667426 -4 6 C-2.66666667 4 -1.33333333 2 0 0 Z " fill="#EBEBEB" transform="translate(597,798)"/>
<path d="M0 0 C0 3.86338017 -1.35704609 5.53847274 -3.375 8.8125 C-5.8380925 12.81122425 -7.66520463 16.49000957 -9 21 C-9.99 19.68 -10.98 18.36 -12 17 C-10.32844203 13.22757683 -7.92645254 10.07212347 -5.4375 6.8125 C-5.02564453 6.26658203 -4.61378906 5.72066406 -4.18945312 5.15820312 C-1.16952328 1.16952328 -1.16952328 1.16952328 0 0 Z " fill="#D3D3D3" transform="translate(681,655)"/>
<path d="M0 0 C3.88701415 1.29567138 4.44755274 2.8637199 6.5625 6.3125 C7.16191406 7.27800781 7.76132812 8.24351562 8.37890625 9.23828125 C9.6840822 11.46179787 10.88998636 13.67504606 12 16 C7.08064098 11.88380164 2.47352044 7.59589638 -2 3 C-1.34 2.01 -0.68 1.02 0 0 Z " fill="#DEDEDE" transform="translate(601,808)"/>
<path d="M0 0 C3.68006822 3.38168431 5.9785845 6.42521756 8 11 C6.68 11.99 5.36 12.98 4 14 C3.32968281 12.0429132 2.66385317 10.08428887 2 8.125 C1.62875 7.03445313 1.2575 5.94390625 0.875 4.8203125 C0 2 0 2 0 0 Z " fill="#DEDEDE" transform="translate(928,668)"/>
<path d="M0 0 C0.33 0.66 0.66 1.32 1 2 C-0.98296946 6.07610388 -3.73699429 8.90014457 -7 12 C-7.598125 12.598125 -8.19625 13.19625 -8.8125 13.8125 C-9.204375 14.204375 -9.59625 14.59625 -10 15 C-10.66 14.67 -11.32 14.34 -12 14 C-11.38511719 13.32453125 -10.77023437 12.6490625 -10.13671875 11.953125 C-9.32847656 11.06109375 -8.52023437 10.1690625 -7.6875 9.25 C-6.88699219 8.36828125 -6.08648438 7.4865625 -5.26171875 6.578125 C-3.39083089 4.44550672 -1.65915714 2.29812057 0 0 Z " fill="#D9D9D9" transform="translate(973,829)"/>
<path d="M0 0 C0 0.99 0 1.98 0 3 C-1 4 -2 5 -3 6 C-3 6.99 -3 7.98 -3 9 C-3.97850195 10.02104551 -4.97980427 11.0206121 -6 12 C-6.33 12.99 -6.66 13.98 -7 15 C-7.66 14.67 -8.32 14.34 -9 14 C-7.64002446 7.95566426 -4.14348206 4.36505864 0 0 Z " fill="#1E1E1E" transform="translate(537,671)"/>
<path d="M0 0 C0.33 1.32 0.66 2.64 1 4 C-1.64 6.31 -4.28 8.62 -7 11 C-7 7.22089522 -6.00296038 6.53893899 -3.5 3.8125 C-2.8503125 3.09707031 -2.200625 2.38164062 -1.53125 1.64453125 C-1.0259375 1.10183594 -0.520625 0.55914062 0 0 Z " fill="#D8D8D8" transform="translate(591,438)"/>
<path d="M0 0 C-0.33 0.66 -0.66 1.32 -1 2 C-4.375 2.75 -4.375 2.75 -8 3 C-8.99 2.34 -9.98 1.68 -11 1 C-3.57142857 -1.42857143 -3.57142857 -1.42857143 0 0 Z " fill="#222222" transform="translate(877,891)"/>
<path d="M0 0 C0 4.26861765 -1.65525557 6.48288335 -4 10 C-4 9.34 -4 8.68 -4 8 C-5.32 8.33 -6.64 8.66 -8 9 C-7.67 8.34 -7.34 7.68 -7 7 C-6.34 7 -5.68 7 -5 7 C-4.731875 6.401875 -4.46375 5.80375 -4.1875 5.1875 C-3.01506533 3.02775192 -1.80630718 1.64209744 0 0 Z " fill="#282828" transform="translate(1001,807)"/>
<path d="M0 0 C0.66 0.66 1.32 1.32 2 2 C1.525625 2.598125 1.05125 3.19625 0.5625 3.8125 C-1.16465744 6.00382924 -1.16465744 6.00382924 -2 9 C-3.32 8.67 -4.64 8.34 -6 8 C-4.02 5.36 -2.04 2.72 0 0 Z " fill="#DFDFDF" transform="translate(577,455)"/>
<path d="M0 0 C0.33 0 0.66 0 1 0 C0.67 3.3 0.34 6.6 0 10 C-0.66 9.01 -1.32 8.02 -2 7 C-2.99 7.495 -2.99 7.495 -4 8 C-2.87548273 5.0280615 -1.77706209 2.66559313 0 0 Z " fill="#B1B1B1" transform="translate(539,682)"/>
<path d="M0 0 C0.66 0.66 1.32 1.32 2 2 C-0.85276137 4.93200474 -3.65079784 7.64315404 -7 10 C-5.33248852 6.05860922 -2.77289351 3.2107188 0 0 Z " fill="#212121" transform="translate(580,437)"/>
<path d="M0 0 C3.7952131 1.49097658 5.61042731 3.75700849 8 7 C7.67 7.66 7.34 8.32 7 9 C5.82737096 7.88121617 4.66204862 6.75476949 3.5 5.625 C2.8503125 4.99851562 2.200625 4.37203125 1.53125 3.7265625 C0 2 0 2 0 0 Z " fill="#BBBBBB" transform="translate(605,815)"/>
<path d="M0 0 C0.66 0 1.32 0 2 0 C1.8125 2.375 1.8125 2.375 1 5 C-1.5625 6.3125 -1.5625 6.3125 -4 7 C-2.92598892 4.08482708 -2.22189824 2.22189824 0 0 Z " fill="#1C1C1C" transform="translate(612,593)"/>
<path d="M0 0 C0 4.38968456 -2.12805101 5.76905739 -5 9 C-5.66 8.34 -6.32 7.68 -7 7 C-4.69 4.69 -2.38 2.38 0 0 Z " fill="#161616" transform="translate(628,576)"/>
<path d="M0 0 C-0.3125 1.9375 -0.3125 1.9375 -1 4 C-1.99 4.33 -2.98 4.66 -4 5 C-4.99 4.34 -5.98 3.68 -7 3 C-2.25 0 -2.25 0 0 0 Z " fill="#262626" transform="translate(769,675)"/>
</svg>
